<svg xmlns="http://www.w3.org/2000/svg" width="160" height="120" viewBox="0 0 160 120" role="img" aria-label="screenshot">
<ellipse cx="80" cy="105" rx="44" ry="5" fill="#171923" stroke="none" stroke-width="1" opacity="0.22" stroke-linecap="round" stroke-linejoin="round"/>
<rect x="38" y="29" width="85" height="62" rx="8" fill="#36384F" stroke="#73759D" stroke-width="1" opacity="1" stroke-linecap="round" stroke-linejoin="round"/>
<rect x="44" y="35" width="73" height="8" rx="3" fill="#565875" stroke="none" stroke-width="1" opacity="1" stroke-linecap="round" stroke-linejoin="round"/>
<ellipse cx="50" cy="39" rx="1.3" ry="1.3" fill="#C1BEFF" stroke="none" stroke-width="1" opacity="1" stroke-linecap="round" stroke-linejoin="round"/>
<ellipse cx="56" cy="39" rx="1.3" ry="1.3" fill="#C1BEFF" stroke="none" stroke-width="1" opacity="1" stroke-linecap="round" stroke-linejoin="round"/>
<ellipse cx="62" cy="39" rx="1.3" ry="1.3" fill="#C1BEFF" stroke="none" stroke-width="1" opacity="1" stroke-linecap="round" stroke-linejoin="round"/>
<rect x="45" y="49" width="25" height="34" rx="4" fill="#777FA9" stroke="none" stroke-width="1" opacity="1" stroke-linecap="round" stroke-linejoin="round"/>
<rect x="77" y="54" width="31" height="3" rx="1.5" fill="#C1BEFF" stroke="none" stroke-width="1" opacity="0.85" stroke-linecap="round" stroke-linejoin="round"/>
<rect x="77" y="63" width="23" height="3" rx="1.5" fill="#C1BEFF" stroke="none" stroke-width="1" opacity="0.4" stroke-linecap="round" stroke-linejoin="round"/>
<rect x="77" y="72" width="28" height="3" rx="1.5" fill="#C1BEFF" stroke="none" stroke-width="1" opacity="0.4" stroke-linecap="round" stroke-linejoin="round"/>
<path d="M 27 34 L 27 19 L 42 19" fill="none" stroke="#C1BEFF" stroke-width="2.5" opacity="1" stroke-linecap="round" stroke-linejoin="round"/>
<path d="M 133 34 L 133 19 L 118 19" fill="none" stroke="#C1BEFF" stroke-width="2.5" opacity="1" stroke-linecap="round" stroke-linejoin="round"/>
<path d="M 27 86 L 27 101 L 42 101" fill="none" stroke="#C1BEFF" stroke-width="2.5" opacity="1" stroke-linecap="round" stroke-linejoin="round"/>
<path d="M 133 86 L 133 101 L 118 101" fill="none" stroke="#C1BEFF" stroke-width="2.5" opacity="1" stroke-linecap="round" stroke-linejoin="round"/>
<path d="M 98 74 L 103 97 L 109 90 L 118 89 Z " fill="#EBE9FF" stroke="#36384F" stroke-width="1" opacity="1" stroke-linecap="round" stroke-linejoin="round"/>
<path d="M 18 39 L 24 39 M 21 36 L 21 42" fill="none" stroke="#C1BEFF" stroke-width="1.3" opacity="0.65" stroke-linecap="round" stroke-linejoin="round"/>
<path d="M 135 75 L 143 75 M 139 71 L 139 79" fill="none" stroke="#C1BEFF" stroke-width="1.3" opacity="0.65" stroke-linecap="round" stroke-linejoin="round"/>
<ellipse cx="130" cy="15" rx="1.6" ry="1.6" fill="#C1BEFF" stroke="none" stroke-width="1" opacity="0.5" stroke-linecap="round" stroke-linejoin="round"/>
</svg>
