<svg xmlns="http://www.w3.org/2000/svg" width="160" height="120" viewBox="0 0 160 120" role="img" aria-label="video">
<ellipse cx="80" cy="105" rx="44" ry="5" fill="#171923" stroke="none" stroke-width="1" opacity="0.22" stroke-linecap="round" stroke-linejoin="round"/>
<rect x="32" y="38" width="99" height="60" rx="8" fill="#36384F" stroke="#8584AC" stroke-width="1" opacity="1" stroke-linecap="round" stroke-linejoin="round"/>
<rect x="38" y="45" width="87" height="46" rx="4" fill="#565875" stroke="none" stroke-width="1" opacity="1" stroke-linecap="round" stroke-linejoin="round"/>
<g transform="rotate(-9 32 35)">
<rect x="32" y="24" width="99" height="16" rx="4" fill="#C1BEFF" stroke="none" stroke-width="1" opacity="1" stroke-linecap="round" stroke-linejoin="round"/>
<path d="M 46 24 L 37 40" fill="none" stroke="#36384F" stroke-width="8" opacity="1" stroke-linecap="round" stroke-linejoin="round"/>
<path d="M 70 24 L 61 40" fill="none" stroke="#36384F" stroke-width="8" opacity="1" stroke-linecap="round" stroke-linejoin="round"/>
<path d="M 94 24 L 85 40" fill="none" stroke="#36384F" stroke-width="8" opacity="1" stroke-linecap="round" stroke-linejoin="round"/>
<path d="M 118 24 L 109 40" fill="none" stroke="#36384F" stroke-width="8" opacity="1" stroke-linecap="round" stroke-linejoin="round"/>
</g>
<path d="M 73 55 L 94 68 L 73 81 Z " fill="#EBE9FF" stroke="none" stroke-width="2" opacity="1" stroke-linecap="round" stroke-linejoin="round"/>
<path d="M 18 39 L 24 39 M 21 36 L 21 42" fill="none" stroke="#C1BEFF" stroke-width="1.3" opacity="0.65" stroke-linecap="round" stroke-linejoin="round"/>
<path d="M 135 75 L 143 75 M 139 71 L 139 79" fill="none" stroke="#C1BEFF" stroke-width="1.3" opacity="0.65" stroke-linecap="round" stroke-linejoin="round"/>
<ellipse cx="130" cy="15" rx="1.6" ry="1.6" fill="#C1BEFF" stroke="none" stroke-width="1" opacity="0.5" stroke-linecap="round" stroke-linejoin="round"/>
</svg>
